<svg width="73" height="72" viewBox="0 0 73 72" fill="none" xmlns="http://www.w3.org/2000/svg">
<rect x="0.775391" width="72" height="72" rx="36" fill="#9863EB"/>
<path d="M56.7754 36H51.2013M56.7754 36C56.7754 30.6049 54.6365 25.7088 51.1595 22.1113M56.7754 36C56.7754 41.3951 54.6365 46.2912 51.1595 49.8887M36.7505 16C26.3661 16 17.8278 23.8946 16.8243 34.0025M36.7505 16V22.1113M36.7505 16C42.4082 16 47.5178 18.3433 51.1595 22.1113M38.8248 55.894C43.6508 55.398 47.9686 53.1902 51.1595 49.8887M51.1595 22.1113L47.0017 26.2639M22.9311 22.1113L27.0889 26.2639M51.1595 49.8887L47.0017 45.7361M36.3867 56C25.5557 56 16.7754 47.2306 16.7754 36.4131H23.1315C23.116 37.4938 23.8788 39.8551 24.5723 40.9086C23.4378 41.7741 22.8709 42.0887 22.1906 42.9975C22.8413 44.9316 25.1559 49.0692 29.2087 50.1461C30.1156 49.5132 30.9593 48.3708 31.2537 47.8602C33.085 48.6997 34.1037 48.8961 35.9479 48.9279L36.3867 56Z" stroke="white" stroke-width="2"/>
<path d="M27.9284 41.0567V39.7517L32.0984 35.7917C32.4484 35.4617 32.7084 35.1717 32.8784 34.9217C33.0484 34.6717 33.1584 34.4417 33.2084 34.2317C33.2684 34.0117 33.2984 33.8067 33.2984 33.6167C33.2984 33.1367 33.1334 32.7667 32.8034 32.5067C32.4734 32.2367 31.9884 32.1017 31.3484 32.1017C30.8384 32.1017 30.3734 32.1917 29.9534 32.3717C29.5434 32.5517 29.1884 32.8267 28.8884 33.1967L27.5234 32.1467C27.9334 31.5967 28.4834 31.1717 29.1734 30.8717C29.8734 30.5617 30.6534 30.4067 31.5134 30.4067C32.2734 30.4067 32.9334 30.5317 33.4934 30.7817C34.0634 31.0217 34.4984 31.3667 34.7984 31.8167C35.1084 32.2667 35.2634 32.8017 35.2634 33.4217C35.2634 33.7617 35.2184 34.1017 35.1284 34.4417C35.0384 34.7717 34.8684 35.1217 34.6184 35.4917C34.3684 35.8617 34.0034 36.2767 33.5234 36.7367L29.9384 40.1417L29.5334 39.4067H35.6684V41.0567H27.9284Z" fill="white"/>
<path d="M36.4242 38.6717V37.3217L41.5992 30.5567H43.6842L38.5842 37.3217L37.6092 37.0217H45.9342V38.6717H36.4242ZM42.1842 41.0567V38.6717L42.2442 37.0217V34.9067H44.0742V41.0567H42.1842Z" fill="white"/>
</svg>
