<svg width="73" height="72" viewBox="0 0 73 72" fill="none" xmlns="http://www.w3.org/2000/svg">
<rect x="0.775391" width="72" height="72" rx="36" fill="#3F41D0"/>
<path d="M23.8043 44C25.293 43.0618 26.2836 41.6685 26.2836 39.7649C26.2836 39.0727 26.1526 38.4114 25.9143 37.8049C24.2169 36.9239 23.0557 35.1369 23.0557 33.0758C23.0557 30.1415 25.4093 27.7627 28.3127 27.7627C28.8122 27.7627 29.2954 27.8331 29.7532 27.9647M23.8043 44H19.7754V49H21.7754M23.8043 44H36.7754V49H34.7754M32.821 44C31.3324 43.0618 30.3418 41.6685 30.3418 39.7649C30.3418 39.0727 30.4728 38.4114 30.7111 37.8049C32.4084 36.9239 33.5697 35.1369 33.5697 33.0758C33.5697 30.6463 31.9562 28.5977 29.7532 27.9647M21.7754 49V52H34.7754M21.7754 49H34.7754M34.7754 52V49M34.7754 52H53.7754V20H29.7532V27.9647M33.7769 25H41.7754M49.7754 29H38.7754M49.7754 33H38.7754M49.7754 43C49.7754 45.692 47.439 48 44.7754 48C42.1118 48 39.7754 45.692 39.7754 43C39.7754 40.308 42.1118 38 44.7754 38C47.439 38 49.7754 40.308 49.7754 43Z" stroke="white" stroke-width="2"/>
</svg>
