<svg width="73" height="72" viewBox="0 0 73 72" fill="none" xmlns="http://www.w3.org/2000/svg">
<rect x="0.275391" width="72" height="72" rx="36" fill="#008F6D"/>
<path d="M27.447 50.8525L24.7851 50.8569C22.0204 50.8614 19.7769 48.6215 19.7769 45.8569V26C19.7769 23.2386 22.0154 21 24.7769 21H47.7714C50.5206 21 52.754 23.2195 52.7713 25.9687L52.7741 26.4286M34.5372 37.181L37.6745 40.3183C38.065 40.7089 38.6982 40.7089 39.0887 40.3183L44.9427 34.4643M32.4781 50.4744V47.0931C32.4781 46.8082 32.2509 46.5769 31.9678 46.5444C30.4202 46.3669 28.0704 45.5152 28.0704 43.095V33.0262C28.1385 31.4884 29.1153 28.413 32.4781 28.413H46.4684C47.9037 28.4471 50.7741 29.4175 50.7741 33.0262V43.0216C50.7741 43.0717 50.7675 43.1186 50.7523 43.1664C50.3781 44.3493 49.0402 46.5806 46.4684 46.5806H38.0201C37.8845 46.5806 37.7547 46.6331 37.657 46.727L33.3662 50.8525C33.0329 51.173 32.4781 50.9368 32.4781 50.4744Z" stroke="white" stroke-width="2"/>
</svg>
