<svg width="73" height="72" viewBox="0 0 73 72" fill="none" xmlns="http://www.w3.org/2000/svg">
<rect x="0.275391" width="72" height="72" rx="36" fill="#56A0A0"/>
<path d="M20.5876 23.2343C25.6228 22.9553 32.7003 18.6198 35.9748 16.2226C36.154 16.0914 36.3972 16.0917 36.5764 16.2228C39.851 18.6201 46.9281 22.9553 51.9631 23.2342C52.2389 23.2495 52.4629 23.4814 52.4629 23.7687V35.6644C52.1634 40.6304 48.5368 51.6036 36.4429 55.9406C36.3359 55.9789 36.2149 55.9789 36.1079 55.9406C24.014 51.6036 20.3874 40.6304 20.0879 35.6644V23.7484C20.0879 23.4723 20.3119 23.2495 20.5876 23.2343Z" stroke="white" stroke-width="2"/>
<path d="M24.1172 35.3733V30.7566V26.6398C24.1172 26.3636 24.3409 26.141 24.6164 26.1225C26.7413 25.9791 29.3164 24.9648 31.6248 23.7861M46.5215 42.8941C45.1888 44.9883 43.2697 47.0656 40.5784 48.6868" stroke="white" stroke-width="2"/>
<path fill-rule="evenodd" clip-rule="evenodd" d="M45.446 31.3464C46.3776 32.1315 46.3968 33.56 45.4867 34.3699L35.5404 43.2207C34.8026 43.8773 33.6959 43.897 32.9352 43.267L28.0531 39.2239C27.1817 38.5023 27.0819 37.202 27.8331 36.3558L28.4929 35.6126C29.2109 34.8037 30.442 34.7123 31.2717 35.4062L32.9696 36.8264C33.7144 37.4494 34.7992 37.4473 35.5417 36.8215L42.4528 30.9964C43.1974 30.3688 44.2858 30.3688 45.0305 30.9963L45.446 31.3464Z" stroke="white" stroke-width="2"/>
</svg>
