<svg width="36" height="33" viewBox="0 0 36 33" fill="none" xmlns="http://www.w3.org/2000/svg">
<path d="M8.69702 30.9233L6.03507 30.9277C3.27044 30.9322 1.02686 28.6923 1.02686 25.9277V6.0708C1.02686 3.30938 3.26543 1.0708 6.02686 1.0708H29.0214C31.7706 1.0708 34.004 3.29034 34.0213 6.03948L34.0241 6.49941M15.7872 17.2518L18.9245 20.3891C19.315 20.7797 19.9482 20.7797 20.3387 20.3891L26.1927 14.5351M13.7281 30.5452V27.1639C13.7281 26.879 13.5009 26.6477 13.2178 26.6152C11.6702 26.4377 9.32041 25.586 9.32041 23.1658V13.097C9.38849 11.5592 10.3653 8.48376 13.7281 8.48376H27.7184C29.1537 8.51787 32.0241 9.48828 32.0241 13.097V23.0924C32.0241 23.1425 32.0175 23.1894 32.0023 23.2372C31.6281 24.4201 30.2902 26.6514 27.7184 26.6514H19.2701C19.1345 26.6514 19.0047 26.7039 18.907 26.7978L14.6162 30.9233C14.2829 31.2438 13.7281 31.0076 13.7281 30.5452Z" stroke="white" stroke-width="2"/>
</svg>
