<svg width="35" height="38" viewBox="0 0 35 38" fill="none" xmlns="http://www.w3.org/2000/svg">
<path d="M28.5151 23.5077C32.517 23.5077 33.5254 21.9968 33.5254 20.4531C33.5254 20.1778 33.5254 19.7098 33.5254 17.1495C33.5254 14.5892 29.9667 14.5328 28.5151 14.5053C28.5151 13.3765 28.5151 10.8052 28.5151 9.54984C28.5151 5.9476 23.5667 1.5708 18.0741 1.5708C10.8436 1.5708 6.71606 6.73681 6.71606 10.339V15.2945M28.5151 23.5077V26.9765C28.5151 29.5071 26.1166 34.2445 20.8737 34.2445C19.822 34.2445 18.9621 33.8514 18.4417 33.8514C18.4417 32.3496 17.2305 31.1321 15.7363 31.1321C14.2422 31.1321 13.031 32.3496 13.031 33.8514C13.031 35.3533 14.2422 36.5708 15.7363 36.5708M28.5151 23.5077V18.3645M6.71606 15.2945V24.2969C3.94023 24.2969 1.52539 24.187 1.52539 21.5441C1.52539 18.9012 1.52539 18.0452 1.52539 17.9476C1.52539 15.6802 4.76502 15.2945 6.71606 15.2945Z" stroke="white" stroke-width="2" stroke-linejoin="round"/>
</svg>
