<svg width="43" height="18" viewBox="0 0 43 18" fill="none" xmlns="http://www.w3.org/2000/svg">
<path d="M19.295 1.32838C24.8527 1.32838 27.8426 2.59675 29.6464 3.81546C30.5381 4.41798 33.0616 5.70574 33.9841 5.87019M19.295 1.32838C15.6734 1.32838 12.0621 2.36346 9.41231 3.42184M19.295 1.32838V13.7597M38.7676 13.901H41.5254C41.5254 13.1454 41.5254 10.9517 41.5254 8.78716C41.5254 7.09205 37.3153 6.46401 33.9841 5.87019M5.67112 13.901C2.68758 13.901 1.64732 12.1022 1.52539 11.2734C1.52539 10.407 1.52539 9.97649 1.52539 8.78716M9.41231 3.42184C7.99586 3.98759 6.85414 4.56001 6.13243 4.98454H2.68946C2.4213 4.96017 1.52539 5.51111 1.52539 6.44712C1.52539 6.71774 1.52539 8.30345 1.52539 8.78716M9.41231 3.42184L11.0968 5.87019H33.9841M12.7347 13.901H31.8309M1.52539 8.78716H4.64725M21.6558 8.78716H24.4346M38.82 13.2924C38.82 15.2369 37.2437 16.8132 35.2992 16.8132C33.3548 16.8132 31.7785 15.2369 31.7785 13.2924C31.7785 11.348 33.3548 9.77165 35.2992 9.77165C37.2437 9.77165 38.82 11.348 38.82 13.2924ZM12.7871 13.2924C12.7871 15.2369 11.2108 16.8132 9.2663 16.8132C7.32183 16.8132 5.74552 15.2369 5.74552 13.2924C5.74552 11.348 7.32183 9.77165 9.2663 9.77165C11.2108 9.77165 12.7871 11.348 12.7871 13.2924Z" stroke="white" stroke-width="2"/>
</svg>
