<svg width="35" height="43" viewBox="0 0 35 43" fill="none" xmlns="http://www.w3.org/2000/svg">
<path d="M1.83763 8.30505C6.87281 8.02608 13.9503 3.69062 17.2248 1.29338C17.404 1.16221 17.6472 1.16247 17.8264 1.29365C21.101 3.69093 28.1781 8.02608 33.2131 8.30505C33.4889 8.32033 33.7129 8.55216 33.7129 8.83953V20.7352C33.4134 25.7012 29.7868 36.6744 17.6929 41.0114C17.5859 41.0497 17.4649 41.0497 17.3579 41.0114C5.26399 36.6744 1.63736 25.7012 1.33789 20.7352V8.81921C1.33789 8.54306 1.56191 8.32033 1.83763 8.30505Z" stroke="white" stroke-width="2"/>
<path d="M5.36719 20.4444V15.8276V11.7108C5.36719 11.4347 5.59089 11.2121 5.86641 11.1935C7.99133 11.0502 10.5664 10.0359 12.8748 8.85718M27.7715 27.9652C26.4388 30.0593 24.5197 32.1366 21.8284 33.7578" stroke="white" stroke-width="2"/>
<path fill-rule="evenodd" clip-rule="evenodd" d="M26.696 16.4172C27.6276 17.2023 27.6468 18.6308 26.7367 19.4407L16.7904 28.2915C16.0526 28.9481 14.9459 28.9678 14.1852 28.3378L9.30314 24.2947C8.4317 23.5731 8.33194 22.2728 9.08309 21.4266L9.74286 20.6834C10.4609 19.8745 11.692 19.7831 12.5217 20.477L14.2196 21.8972C14.9644 22.5202 16.0492 22.5181 16.7917 21.8923L23.7028 16.0672C24.4474 15.4396 25.5358 15.4396 26.2805 16.0671L26.696 16.4172Z" stroke="white" stroke-width="2"/>
</svg>
