<svg width="81" height="81" viewBox="0 0 81 81" fill="none" xmlns="http://www.w3.org/2000/svg">
<circle cx="40.5254" cy="40.4531" r="40" fill="white"/>
<path fill-rule="evenodd" clip-rule="evenodd" d="M40.5254 41.1605L27.2813 54.4038L26.5742 53.6967L39.8183 40.4534L26.5742 27.2101L27.2813 26.5029L40.5254 39.7463L53.7695 26.5029L54.4766 27.2101L41.2325 40.4534L54.4766 53.6967L53.7695 54.4038L40.5254 41.1605Z" fill="#E35332"/>
<path d="M27.2813 54.4038L26.9277 54.7574L27.2813 55.1109L27.6349 54.7574L27.2813 54.4038ZM40.5254 41.1605L40.879 40.8069L40.5254 40.4534L40.1719 40.8069L40.5254 41.1605ZM26.5742 53.6967L26.2207 53.3432L25.8671 53.6967L26.2207 54.0503L26.5742 53.6967ZM39.8183 40.4534L40.1718 40.8069L40.5254 40.4534L40.1718 40.0998L39.8183 40.4534ZM26.5742 27.2101L26.2207 26.8565L25.8671 27.2101L26.2207 27.5636L26.5742 27.2101ZM27.2813 26.5029L27.6348 26.1494L27.2813 25.7958L26.9277 26.1494L27.2813 26.5029ZM40.5254 39.7463L40.1719 40.0999L40.5254 40.4534L40.879 40.0999L40.5254 39.7463ZM53.7695 26.5029L54.1231 26.1494L53.7696 25.7958L53.416 26.1494L53.7695 26.5029ZM54.4766 27.2101L54.8302 27.5636L55.1837 27.2101L54.8302 26.8565L54.4766 27.2101ZM41.2325 40.4534L40.879 40.0998L40.5254 40.4534L40.879 40.8069L41.2325 40.4534ZM54.4766 53.6967L54.8302 54.0503L55.1837 53.6967L54.8302 53.3432L54.4766 53.6967ZM53.7695 54.4038L53.416 54.7574L53.7696 55.1109L54.1231 54.7574L53.7695 54.4038ZM27.6349 54.7574L40.879 41.514L40.1719 40.8069L26.9278 54.0503L27.6349 54.7574ZM26.2207 54.0503L26.9277 54.7574L27.6349 54.0503L26.9278 53.3432L26.2207 54.0503ZM39.4647 40.0998L26.2207 53.3432L26.9278 54.0503L40.1718 40.8069L39.4647 40.0998ZM40.1718 40.0998L26.9278 26.8565L26.2207 27.5636L39.4647 40.8069L40.1718 40.0998ZM26.9278 27.5636L27.6349 26.8565L26.9277 26.1494L26.2207 26.8565L26.9278 27.5636ZM26.9278 26.8565L40.1719 40.0999L40.879 39.3927L27.6348 26.1494L26.9278 26.8565ZM53.416 26.1494L40.1719 39.3927L40.879 40.0999L54.1231 26.8565L53.416 26.1494ZM54.8302 26.8565L54.1231 26.1494L53.416 26.8565L54.1231 27.5636L54.8302 26.8565ZM41.5861 40.8069L54.8302 27.5636L54.1231 26.8565L40.879 40.0998L41.5861 40.8069ZM40.879 40.8069L54.1231 54.0503L54.8302 53.3432L41.5861 40.0998L40.879 40.8069ZM54.1231 53.3432L53.416 54.0503L54.1231 54.7574L54.8302 54.0503L54.1231 53.3432ZM54.1231 54.0503L40.879 40.8069L40.1719 41.514L53.416 54.7574L54.1231 54.0503Z" fill="#E35332"/>
</svg>
