<svg width="71" height="70" viewBox="0 0 71 70" fill="none" xmlns="http://www.w3.org/2000/svg">
<path d="M25.1079 34.5743V61.5743C25.1079 63.2312 26.4511 64.5743 28.1079 64.5743H63.2531C64.9099 64.5743 66.2531 63.2312 66.2531 61.5743V34.5743M25.1079 34.5743V7.57434C25.1079 5.91749 26.4511 4.57434 28.1079 4.57434H63.2531C64.9099 4.57434 66.2531 5.91749 66.2531 7.57434V34.5743M25.1079 34.5743H66.2531M43.0288 42.2527H62.4154M43.0288 45.4249H62.4154M43.0288 48.6237H57.9328M32.0808 53.7373H36.752C38.4089 53.7373 39.752 52.3941 39.752 50.7373V43.8086C39.752 42.1518 38.4089 40.8086 36.752 40.8086H32.0808C30.424 40.8086 29.0808 42.1518 29.0808 43.8086V50.7373C29.0808 52.3941 30.424 53.7373 32.0808 53.7373Z" stroke="white" stroke-width="2"/>
<path d="M4.79736 13.1294H31.0406C33.802 13.1294 36.0406 15.368 36.0406 18.1294V51.8706C36.0406 54.632 33.802 56.8706 31.0406 56.8706H4.79736V13.1294Z" fill="#E35332"/>
</svg>
