<svg width="71" height="70" viewBox="0 0 71 70" fill="none" xmlns="http://www.w3.org/2000/svg">
<path d="M5.43359 15.2277H18.7067H21.1877C22.8446 15.2277 24.1877 16.5708 24.1877 18.2277V20.9071C24.1877 22.5639 25.5309 23.9071 27.1877 23.9071H46.3672C48.024 23.9071 49.3672 25.2502 49.3672 26.9071V51.772C49.3672 53.4288 48.024 54.772 46.3672 54.772H5.43359C3.77674 54.772 2.43359 53.4288 2.43359 51.772V18.2277C2.43359 16.5708 3.77674 15.2277 5.43359 15.2277Z" fill="#E35332"/>
<path d="M22.9365 21.3559L17.829 12.5428C17.829 12.5428 30.6825 4.10486 39.916 4.10486C49.1496 4.10486 62.0031 12.5428 62.0031 12.5428L56.8955 21.3559M22.9365 21.3559C23.3323 21.9245 23.943 22.6235 24.7631 23.3632M22.9365 21.3559C24.8824 19.7704 31.0025 16.8572 39.916 16.8572M27.9129 25.654C30.8193 27.3629 34.8439 28.7938 39.916 28.7938C44.9881 28.7938 49.0127 27.3629 51.9191 25.654M27.9129 25.654V30.8386M27.9129 25.654C26.6499 24.9113 25.598 24.1162 24.7631 23.3632M32.5731 39.4488C29.9597 37.6936 27.9129 35.2379 27.9129 33.7316V30.8386M32.5731 39.4488C34.4342 40.6987 36.8615 41.6071 39.916 41.6071C42.9705 41.6071 45.3978 40.6987 47.2589 39.4488M32.5731 39.4488V44.1072M32.5731 44.1072C34.0774 45.6698 37.8696 48.2258 39.992 48.7326M32.5731 44.1072L26.4779 44.951M39.992 48.7326C38.929 49.5229 37.6991 50.8215 36.24 52.0308M39.992 48.7326C42.1144 48.2258 45.7547 45.6698 47.2589 44.1072M39.992 48.7326C41.055 49.5229 41.9937 50.4625 43.4528 51.6718M36.24 66.546H12.4453C12.4453 64.1709 12.4453 58.3331 12.4453 53.9828C12.4453 49.6325 18.2312 46.1529 20.3827 45.7948L26.4779 44.951M36.24 66.546H40.2614H43.4528M36.24 66.546V52.0308M26.4779 44.951C26.8813 48.9735 29.7189 53.3298 32.1854 55.1704C33.1068 54.5112 34.6989 53.3079 36.24 52.0308M25.9044 55.5454H18.3121M27.9129 30.8386C27.9129 30.8386 26.7578 30.8386 25.5256 30.8386C24.2935 30.8386 22.374 29.6141 22.374 27.294C22.374 24.9739 23.9668 23.7068 24.7631 23.3632M39.916 16.8572C48.8295 16.8572 54.9496 19.7704 56.8955 21.3559M39.916 16.8572V9.57286M56.8955 21.3559C56.4997 21.9245 55.889 22.6235 55.0689 23.3632M51.9191 25.654V30.8386M51.9191 25.654C53.1822 24.9113 54.234 24.1162 55.0689 23.3632M47.2589 39.4488C49.8723 37.6936 51.9191 35.2379 51.9191 33.7316V30.8386M47.2589 39.4488V44.1072M47.2589 44.1072L53.3541 44.951M43.4528 66.546H67.3867V53.9828C67.3867 49.6325 61.6009 46.1529 59.4493 45.7948L53.3541 44.951M43.4528 66.546V51.6718M53.3541 44.951C52.9508 48.9735 50.1131 53.3298 47.6467 55.1704C47.0756 54.6744 44.9939 52.9489 43.4528 51.6718M53.9276 55.5454H61.5199M51.9191 30.8386H54.3064C55.5386 30.8386 57.458 29.6141 57.458 27.294C57.458 24.9739 55.8653 23.7068 55.0689 23.3632" stroke="white" stroke-width="2"/>
</svg>
