<svg width="71" height="70" viewBox="0 0 71 70" fill="none" xmlns="http://www.w3.org/2000/svg">
<g clip-path="url(#clip0_0_329)">
<rect x="2.15625" y="8.21948" width="43.2734" height="53.7776" rx="3" fill="#E35332"/>
<path d="M55.997 3.70489L19.7467 3.60483C18.6717 3.55748 16.1614 4.18622 16.1703 7.04309C16.1793 9.89997 16.2079 46.3049 16.2101 64.2049C16.2773 65.2522 17.3925 67.0307 19.6766 66.9869C21.9607 66.9431 49.4343 66.9361 62.9083 67.0167C64.2763 67.0735 66.9952 66.3395 66.9946 64.3522C66.9937 61.6344 66.9464 30.1541 66.9192 14.6967M55.997 3.70489L66.9192 14.6967M55.997 3.70489L55.9991 10.7254C55.9046 11.9062 56.8123 14.6365 59.4803 14.6944C62.1483 14.7523 65.5512 14.64 66.9192 14.6967M61.2952 23.8749L21.4294 23.8749M61.2952 29.2733L21.4294 29.2733M61.3509 34.6783L21.4294 34.6784M61.3509 40.0786L38.6296 40.0786" stroke="white" stroke-width="2"/>
</g>
<defs>
<clipPath id="clip0_0_329">
<rect width="70" height="70" fill="white" transform="translate(0.0253906)"/>
</clipPath>
</defs>
</svg>
