<svg width="71" height="70" viewBox="0 0 71 70" fill="none" xmlns="http://www.w3.org/2000/svg">
<path d="M34.57 22.9911H53.5072M55.6344 18.9928H31.5461M37.5421 26.977C46.5045 26.977 41.5293 26.977 50.4916 26.977M30.5392 33.0326H46.5623M30.5392 37.0282H46.5623M30.5392 41.0238H42.5135M30.5392 49.0233H50.4916M26.5409 17.3056C29.9911 16.2996 32.7108 13.5798 33.7169 10.1297C34.1807 8.53906 35.4808 7.16882 37.1377 7.16882H49.8311C51.4879 7.16882 52.7881 8.53906 53.2519 10.1297C54.2579 13.5798 56.9777 16.2996 60.4278 17.3056C62.0184 17.7694 63.3887 19.0696 63.3887 20.7264V52.7326C63.3887 54.3894 62.0022 55.5743 60.413 56.043C58.8113 56.5154 58.1219 57.6059 57.8654 59.8334C57.6758 61.4794 56.391 62.8317 54.7342 62.8317H33.5392C31.8823 62.8317 30.6109 61.4758 30.3726 59.8361C30.0152 57.3771 29.0012 56.3028 26.5742 55.9161C24.938 55.6553 23.5801 54.3894 23.5801 52.7326V20.7264C23.5801 19.0696 24.9503 17.7694 26.5409 17.3056ZM22.4395 66.986H64.5295C66.1864 66.986 67.5295 65.6428 67.5295 63.986V6.01404C67.5295 4.35718 66.1864 3.01404 64.5295 3.01404H22.4395C20.7826 3.01404 19.4395 4.35718 19.4395 6.01404V63.986C19.4395 65.6428 20.7826 66.986 22.4395 66.986Z" stroke="white" stroke-width="2"/>
<path d="M2.53027 13.9875H28.1136C30.875 13.9875 33.1136 16.2261 33.1136 18.9875L33.1137 52.2613C33.1137 55.0227 30.8752 57.2613 28.1137 57.2613H2.53043L2.53027 13.9875Z" fill="#E35332"/>
</svg>
