<svg width="43" height="17" viewBox="0 0 43 17" fill="none" xmlns="http://www.w3.org/2000/svg">
<path d="M0.837891 3.63544V16.7458H7.83216V2.17929L0.837891 3.63544Z" fill="white"/>
<path d="M10.9662 1.52685V10.4334C10.9662 14.8909 15.4892 16.7458 21.0691 16.7458H27.009L25.0381 12.3757H21.8462C19.7013 12.3757 17.9605 12.0649 17.9605 9.94784V8.00556H23.0105V7.87966L21.0965 3.63544H17.9605V0.0708008L10.9662 1.52685Z" fill="white"/>
<path d="M32.4225 16.7458H30.5271L28.5563 12.3757H31.6454C33.7903 12.3757 35.5311 12.0649 35.5311 9.94784V8.00556H32.4491L30.4849 3.63544L42.5254 3.63544V10.4334C42.5254 14.8909 38.0024 16.7458 32.4225 16.7458Z" fill="white"/>
</svg>
