<svg width="218" height="34" viewBox="0 0 218 34" fill="none" xmlns="http://www.w3.org/2000/svg">
<path d="M43.9269 10.3978L42.0596 12.2933L46.1621 16.3346H38.7651V18.9955H46.1621L42.0596 23.0367L43.9269 24.9323L51.3042 17.665L43.9269 10.3978Z" fill="#ED5D2B"/>
<path fill-rule="evenodd" clip-rule="evenodd" d="M21.8023 14.6716C21.8023 16.781 20.3997 18.5628 18.4762 19.1352V23.9845H15.8154V19.1352C13.892 18.5628 12.4894 16.781 12.4894 14.6716C12.4894 12.0999 14.5741 10.0151 17.1458 10.0151C19.7175 10.0151 21.8023 12.0999 21.8023 14.6716ZM17.1458 16.6672C16.0437 16.6672 15.1502 15.7738 15.1502 14.6716C15.1502 13.5694 16.0437 12.676 17.1458 12.676C18.248 12.676 19.1414 13.5694 19.1414 14.6716C19.1414 15.7738 18.248 16.6672 17.1458 16.6672Z" fill="#ED5D2B"/>
<path fill-rule="evenodd" clip-rule="evenodd" d="M44.0867 0.369629H17.1458C7.96122 0.369629 0.515625 7.81522 0.515625 16.9998C0.515625 26.1844 7.96122 33.63 17.1458 33.63H44.0867C53.2714 33.63 60.7169 26.1844 60.7169 16.9998C60.7169 7.81522 53.2714 0.369629 44.0867 0.369629ZM44.0867 3.03046H26.1728C30.7484 5.99327 33.776 11.143 33.776 16.9998C33.776 22.8567 30.7484 28.0064 26.1728 30.9692H44.0867C51.8018 30.9692 58.0561 24.7149 58.0561 16.9998C58.0561 9.28476 51.8018 3.03046 44.0867 3.03046ZM3.17646 16.9998C3.17646 9.28476 9.43075 3.03046 17.1458 3.03046C24.8609 3.03046 31.1152 9.28476 31.1152 16.9998C31.1152 24.7149 24.8609 30.9692 17.1458 30.9692C9.43076 30.9692 3.17646 24.7149 3.17646 16.9998Z" fill="#ED5D2B"/>
<path d="M67.5015 20.7491V13.2642C67.5015 12.259 67.5519 11.4032 67.6528 10.6968C67.7629 9.99048 67.9647 9.32486 68.2582 8.69999C68.5609 8.07512 68.9691 7.57704 69.4828 7.20574C70.0056 6.83444 70.6844 6.54465 71.5191 6.33636C72.3539 6.12807 73.3629 6.02393 74.5461 6.02393C75.7294 6.02393 76.7384 6.12807 77.5731 6.33636C78.4079 6.54465 79.0821 6.83444 79.5957 7.20574C80.1186 7.57704 80.5268 8.07512 80.8203 8.69999C81.123 9.32486 81.3248 9.99048 81.4257 10.6968C81.5358 11.4032 81.5908 12.259 81.5908 13.2642V20.7491C81.5908 21.4645 81.5633 22.0939 81.5083 22.6372C81.4624 23.1806 81.3707 23.7149 81.2331 24.2402C81.1047 24.7564 80.9258 25.2001 80.6965 25.5714C80.4671 25.9427 80.1736 26.2868 79.8159 26.6038C79.4673 26.9208 79.0454 27.1789 78.55 27.3781C78.0639 27.5683 77.486 27.7132 76.8164 27.8128C76.1468 27.9215 75.39 27.9758 74.5461 27.9758C73.7022 27.9758 72.9455 27.9215 72.2759 27.8128C71.6063 27.7132 71.0238 27.5683 70.5285 27.3781C70.0423 27.1789 69.6204 26.9208 69.2626 26.6038C68.9141 26.2868 68.6251 25.9427 68.3958 25.5714C68.1665 25.2001 67.983 24.7564 67.8454 24.2402C67.717 23.7149 67.6253 23.1806 67.5703 22.6372C67.5244 22.0939 67.5015 21.4645 67.5015 20.7491ZM70.1983 20.7762C70.1983 21.3196 70.2074 21.7679 70.2258 22.1211C70.2441 22.4652 70.2854 22.8229 70.3496 23.1942C70.4138 23.5655 70.5055 23.8598 70.6248 24.0772C70.7532 24.2854 70.9183 24.4937 71.1201 24.702C71.3311 24.9103 71.5925 25.0688 71.9044 25.1775C72.2254 25.2771 72.6015 25.3586 73.0326 25.422C73.4638 25.4763 73.9683 25.5035 74.5461 25.5035C75.0598 25.5035 75.5093 25.4854 75.8945 25.4492C76.289 25.4039 76.6329 25.3314 76.9265 25.2318C77.2292 25.1322 77.486 25.0235 77.697 24.9058C77.908 24.7881 78.0868 24.625 78.2336 24.4168C78.3803 24.1994 78.495 23.9866 78.5776 23.7783C78.6601 23.561 78.7243 23.2848 78.7702 22.9497C78.8161 22.6056 78.8436 22.2795 78.8527 21.9716C78.8711 21.6547 78.8803 21.2562 78.8803 20.7762V13.2371C78.8803 12.5941 78.8665 12.0824 78.839 11.7021C78.8115 11.3127 78.7473 10.9142 78.6464 10.5067C78.5546 10.0901 78.417 9.77313 78.2336 9.55578C78.0501 9.33844 77.7979 9.13921 77.4768 8.95809C77.1558 8.76791 76.7568 8.6366 76.2798 8.56415C75.8028 8.4917 75.2249 8.45547 74.5461 8.45547C73.9683 8.45547 73.4592 8.48717 73.0189 8.55056C72.5878 8.61396 72.2163 8.69999 71.9044 8.80866C71.5925 8.90828 71.3311 9.06676 71.1201 9.2841C70.9183 9.49239 70.7532 9.70521 70.6248 9.92255C70.5055 10.1399 70.4138 10.4387 70.3496 10.8191C70.2854 11.1904 70.2441 11.5526 70.2258 11.9058C70.2074 12.25 70.1983 12.6937 70.1983 13.2371V20.7762Z" fill="white"/>
<path d="M83.5584 8.89017V6.44503H95.2536V8.89017H90.7544V27.7856H88.0714V8.89017H83.5584Z" fill="white"/>
<path d="M97.4413 27.7856V6.30919H100.523L104.348 18.1002L108.187 6.30919H111.255V27.7856H108.572V17.6926L108.971 11.8107L104.995 23.8598H103.702L99.7253 11.8107L100.124 17.6926V27.7856H97.4413Z" fill="white"/>
<path d="M115.163 27.7856V6.30919H117.846V13.3729H121.024C123.244 13.3729 124.822 13.8574 125.758 14.8264C126.702 15.7863 127.175 17.3712 127.175 19.5808V21.9445C127.175 24.0002 126.643 25.4899 125.579 26.4136C124.524 27.3283 123.006 27.7856 121.024 27.7856H115.163ZM117.846 25.2861H121.024C121.685 25.2861 122.208 25.2499 122.593 25.1775C122.978 25.105 123.327 24.9556 123.639 24.7292C123.951 24.4937 124.171 24.1541 124.299 23.7104C124.428 23.2666 124.492 22.678 124.492 21.9445V19.5808C124.492 18.1771 124.221 17.2172 123.68 16.701C123.148 16.1758 122.263 15.9131 121.024 15.9131H117.846V25.2861ZM130.381 27.7856V6.30919H133.064V27.7856H130.381Z" fill="white"/>
<path d="M136.682 13.4816V6.30919H139.393V13.4544C139.393 14.8672 139.686 15.8543 140.273 16.4157C140.861 16.9682 141.787 17.2444 143.053 17.2444C144.429 17.2444 145.658 16.8278 146.74 15.9946V6.30919H149.451V27.7856H146.74V18.6299C145.585 19.4088 144.222 19.7982 142.654 19.7982C140.599 19.7982 139.09 19.2684 138.127 18.2088C137.164 17.1402 136.682 15.5645 136.682 13.4816Z" fill="white"/>
<path d="M153.221 27.7856V6.30919H155.904V15.7637H156.936C157.211 15.7637 157.472 15.7184 157.72 15.6279C157.968 15.5373 158.183 15.4332 158.367 15.3154C158.55 15.1886 158.734 15.0075 158.917 14.7721C159.101 14.5276 159.252 14.3102 159.371 14.12C159.49 13.9299 159.623 13.6672 159.77 13.3322C159.917 12.988 160.027 12.7118 160.1 12.5035C160.183 12.2952 160.293 12.0009 160.431 11.6206C160.972 10.0901 161.43 9.01695 161.807 8.40114C162.605 7.10612 163.678 6.41334 165.026 6.32278C165.402 6.29561 165.806 6.30919 166.237 6.36353L166.072 8.80866C165.76 8.77244 165.476 8.78149 165.219 8.83583C164.962 8.89017 164.742 8.99431 164.558 9.14826C164.375 9.30222 164.214 9.4607 164.077 9.62371C163.939 9.78671 163.815 10.0086 163.705 10.2893C163.595 10.561 163.508 10.7965 163.444 10.9957C163.38 11.1949 163.297 11.453 163.196 11.77C163.104 12.087 163.031 12.3269 162.976 12.4899C162.545 13.7035 162.114 14.6906 161.683 15.4513C161.261 16.2029 160.724 16.8006 160.073 17.2444L166.98 27.7856H163.678L157.596 18.2088H155.904V27.7856H153.221Z" fill="white"/>
<path d="M167.324 27.7856L173.103 6.3907H175.841L181.592 27.7856H178.827L177.726 23.8055H171.218L170.117 27.7856H167.324ZM171.892 21.306H177.024L175.896 16.7418L174.465 9.84105L172.993 16.8233L171.892 21.306Z" fill="white"/>
<path d="M190.302 12.0688C190.302 10.0493 190.834 8.54604 191.898 7.55893C192.971 6.56276 194.452 6.06468 196.342 6.06468C198.204 6.06468 199.649 6.52201 200.676 7.43667C201.713 8.35133 202.231 9.73691 202.231 11.5934C202.231 12.4175 202.125 13.151 201.914 13.794C201.703 14.4279 201.419 14.9487 201.061 15.3562C200.713 15.7637 200.309 16.1259 199.851 16.4429C199.392 16.7599 198.91 17.0361 198.406 17.2715C197.901 17.507 197.397 17.7425 196.892 17.9779C196.388 18.2134 195.906 18.485 195.448 18.793C194.989 19.1009 194.581 19.454 194.223 19.8525C193.874 20.251 193.595 20.7626 193.384 21.3875C193.173 22.0124 193.067 22.7278 193.067 23.5338V25.1639H202.052V27.7856H190.329V23.561C190.329 22.592 190.435 21.7181 190.646 20.9392C190.857 20.1514 191.136 19.4993 191.485 18.9831C191.843 18.4579 192.251 17.987 192.71 17.5704C193.168 17.1538 193.65 16.8052 194.154 16.5244C194.668 16.2437 195.177 15.9811 195.681 15.7365C196.195 15.483 196.681 15.2294 197.14 14.9758C197.599 14.7223 198.002 14.4506 198.351 14.1608C198.708 13.871 198.993 13.5133 199.204 13.0876C199.415 12.653 199.52 12.1639 199.52 11.6206C199.52 10.552 199.254 9.76407 198.722 9.25694C198.19 8.74074 197.356 8.48264 196.218 8.48264C194.063 8.48264 192.985 9.67804 192.985 12.0688H190.302Z" fill="white"/>
<path d="M203.345 20.9936L212.757 6.28202H215.261V20.7219H217.173V23.1399H215.261V27.7856H212.591V23.1399H203.744L203.345 20.9936ZM206.469 20.7219H212.591V10.9549L206.469 20.7219Z" fill="white"/>
</svg>
