<svg width="57" height="56" viewBox="0 0 57 56" fill="none" xmlns="http://www.w3.org/2000/svg">
<rect x="0.525391" width="56" height="56" rx="28" fill="#104764"/>
<path d="M15.2238 25.9367L10.9095 27.6989C10.1227 28.0203 9.74543 28.9187 10.0668 29.7055L10.5621 30.9182M12.7931 36.38L15.5193 43.0545C15.8407 43.8413 16.7391 44.2186 17.5259 43.8972L19.9002 42.9274M25.3622 40.6332L44.9717 32.6824C45.7608 32.3624 46.1401 31.4626 45.8181 30.6743L42.4274 22.3732M28.7572 24.5914C30.6859 26.5202 31.2132 29.1199 29.935 30.3982C28.6568 31.6764 26.057 31.1491 24.1282 29.2203C22.1995 27.2916 21.6722 24.6918 22.9504 23.4136C24.2286 22.1353 26.8284 22.6627 28.7572 24.5914ZM22.2721 43.9141L43.2044 21.4153C43.5806 21.0109 43.5578 20.3782 43.1535 20.002L31.8073 9.44577C31.4029 9.06958 30.7702 9.0924 30.394 9.49675L9.46161 31.9956C9.08541 32.3999 9.10824 33.0327 9.51258 33.4089L20.8588 43.9651C21.2631 44.3413 21.8959 44.3185 22.2721 43.9141Z" stroke="white" stroke-width="2"/>
</svg>
