<svg width="57" height="56" viewBox="0 0 57 56" fill="none" xmlns="http://www.w3.org/2000/svg">
<rect x="0.525391" width="56" height="56" rx="28" fill="#969696"/>
<path d="M25.3414 44.7539L43.4819 26.6134C45.044 25.0513 45.044 22.5186 43.4819 20.9565L37.9415 15.4161M25.3414 44.7539L16.9726 36.3851M25.3414 44.7539L36.1193 44.7539M25.3414 44.7539L19.1341 44.7535M13.9871 33.3996L13.665 33.0775C12.1029 31.5154 12.1029 28.9828 13.665 27.4207L28.9771 12.1086C30.5392 10.5465 33.0719 10.5465 34.634 12.1086L34.9561 12.4307M13.9871 33.3996L34.9561 12.4307M13.9871 33.3996L16.9726 36.3851M34.9561 12.4307L37.9415 15.4161M37.9415 15.4161L16.9726 36.3851M38.4461 25.3486L39.4104 24.3843C40.0529 23.7418 40.0529 22.7 39.4104 22.0575C38.7678 21.415 37.7261 21.415 37.0836 22.0575L36.1193 23.0218C35.4767 23.6643 35.4767 24.7061 36.1193 25.3486C36.7618 25.9911 37.8035 25.9911 38.4461 25.3486Z" stroke="white" stroke-width="2"/>
</svg>
