<svg width="57" height="57" viewBox="0 0 57 57" fill="none" xmlns="http://www.w3.org/2000/svg">
<rect x="0.525391" y="0.0708008" width="56" height="56" rx="28" fill="#45E156"/>
<path fill-rule="evenodd" clip-rule="evenodd" d="M19.8649 17.5353C19.4083 17.6472 19.0641 17.8615 18.6231 18.3084C17.9994 18.9405 17.6716 19.3844 17.3352 20.0524C16.9312 20.8546 16.75 21.5745 16.7095 22.5378C16.62 24.6685 17.4603 26.6393 19.6796 29.5037C22.6216 33.3007 25.9557 35.9538 29.5815 37.3829C30.8809 37.8951 32.6668 38.4484 33.4037 38.567C34.2202 38.6986 35.6252 38.6664 36.264 38.5014C37.7383 38.1209 39.3719 37.0193 39.8433 36.0879C40.1283 35.5247 40.3351 34.6282 40.346 33.9082C40.3575 33.1471 40.3382 33.1258 39.1101 32.5407C35.6874 30.9101 34.9879 30.6156 34.5384 30.6156C34.2171 30.6156 34.2141 30.6183 33.2821 31.7602C32.4094 32.8293 31.8636 33.4002 31.6218 33.4967C31.3453 33.607 31.0833 33.5229 29.6946 32.8783C27.0539 31.6525 25.0521 29.9488 23.3686 27.4942C22.7753 26.629 22.6436 26.3537 22.7015 26.0996C22.7247 25.9976 22.9579 25.6842 23.2196 25.4033C24.2228 24.3263 24.6341 23.6817 24.6353 23.1846C24.6357 23.0249 24.554 22.7414 24.434 22.4865C24.3229 22.2504 23.8666 21.1986 23.4202 20.1492C22.6008 18.2233 22.3865 17.8136 22.1056 17.6363C21.9154 17.5163 20.2489 17.4412 19.8649 17.5353Z" fill="white"/>
</svg>
