<svg width="57" height="56" viewBox="0 0 57 56" fill="none" xmlns="http://www.w3.org/2000/svg">
<rect x="0.0253906" width="56" height="56" rx="28" fill="#C5C8BC"/>
<path d="M43.0463 21.8025C44.2847 20.5282 44.845 18.9119 44.845 16.9946C44.845 13.0869 41.3187 9.79614 37.411 9.79614C33.5032 9.79614 30.0702 13.0869 30.0702 16.9946C30.0702 18.9119 30.817 20.5282 32.0553 21.8025M43.0463 21.8025C41.7607 23.1254 39.4014 23.9473 37.411 23.9473C35.4205 23.9473 33.341 23.1254 32.0553 21.8025M43.0463 21.8025V27.0078H41.057M41.057 27.0078V42.5258L37.411 46.2038L33.0924 41.5129L35.278 39.4873L34.1224 38.2441V32.6109L32.5061 31.4915L34.1224 29.8218V27.0078M41.057 27.0078H38.058M34.1224 27.0078H37.5292H38.058M34.1224 27.0078H32.0553V21.8025M38.058 27.0078V36.997M27.0254 13.9867H22.8045C20.9924 14.1111 17.1657 15.4785 16.3555 20.0841C15.5452 24.6897 14.8214 27.1167 14.6614 27.9162M27.0254 16.9946H22.8045C21.7744 17.1901 19.6183 18.4103 19.2345 21.0969C18.8507 23.7835 18.1271 26.6547 17.9138 27.9162M29.1271 27.9162H13.0511M13.0511 27.9162C11.8486 27.9162 11.1308 28.9648 11.1308 30.5853C11.1308 32.2058 11.1308 35.134 11.1308 36.3956C11.0248 37.053 11.2604 38.1073 13.0511 38.1073C13.3885 38.1073 14.2053 38.1073 15.0451 38.1073M13.0511 27.9162L12.9812 26.0208M29.0264 38.1073C26.9422 38.1073 24.0456 38.1073 21.0884 38.1073M29.0264 30.8872H21.1169C20.4867 30.8872 19.713 31.0699 19.713 32.3435C19.713 33.7934 19.713 32.824 19.713 33.6312C19.6419 34.0577 19.5817 34.9693 21.1169 34.9693C22.6521 34.9693 26.8583 34.9693 29.0264 34.9693M15.0451 38.1073V44.0323C15.0451 44.7257 15.3854 45.9303 16.7931 45.9303C18.2008 45.9303 18.542 45.9303 19.2345 45.9303C20.1275 45.9303 21.0884 45.1411 21.0884 44.0323C21.0884 42.9236 21.0884 39.7065 21.0884 38.1073M15.0451 38.1073C16.7469 38.1073 18.4598 38.1073 21.0884 38.1073M12.9812 26.0208V23.9473C12.9807 23.6901 12.7963 22.9218 11.524 22.9218C9.98592 22.9218 9.58428 23.2795 9.58428 23.9473C9.58428 24.6151 9.40878 26.0208 10.1021 26.0208C10.6568 26.0207 12.3411 26.0207 12.9812 26.0208ZM17.3908 33.4506C17.3908 34.5152 16.5278 35.3782 15.4632 35.3782C14.3986 35.3782 13.5356 34.5152 13.5356 33.4506C13.5356 32.3861 14.3986 31.523 15.4632 31.523C16.5278 31.523 17.3908 32.3861 17.3908 33.4506ZM40.3002 16.1766C40.3002 17.7718 39.007 19.065 37.4118 19.065C35.8166 19.065 34.5234 17.7718 34.5234 16.1766C34.5234 14.5814 35.8166 13.2883 37.4118 13.2883C39.007 13.2883 40.3002 14.5814 40.3002 16.1766Z" stroke="white" stroke-width="2"/>
</svg>
