<svg width="57" height="56" viewBox="0 0 57 56" fill="none" xmlns="http://www.w3.org/2000/svg">
<rect x="0.0253906" width="56" height="56" rx="28" fill="#E35332"/>
<path d="M14.8922 21.2033C14.8922 20.4264 14.8922 19.2599 14.8922 16.5562C14.8922 10.4495 20.4665 7.98926 24.3924 7.98926C28.05 7.98926 33.7741 10.4495 33.7741 16.5562V21.2033M18.6859 21.2033C18.6859 20.6012 18.6859 19.6794 18.6859 16.5562C18.6859 13.433 21.9434 11.9783 24.3924 11.9783C26.8415 11.9783 30.0448 13.433 30.0448 16.5562V21.2033M13.046 24.9308H11.0645V21.2033H24.3924H30.0448M13.046 24.9308H24.3924H35.0934M13.046 24.9308V40.0717M33.7741 21.2033H30.0448M33.7741 21.2033H37.0785V24.9308H35.0934M35.0934 24.9308V30.983M35.0258 40.0717H24.3924H11.0917V43.979H24.3924H37.0483V40.0717H35.0258ZM35.0258 40.0717L35.0289 34.0325M21.0296 31.0452H27.1866M21.0296 31.0452C21.0296 29.6247 21.5136 27.7557 24.0625 27.7557C26.6113 27.7557 27.1866 29.498 27.1866 31.0452M21.0296 31.0452C21.0296 32.0146 21.1423 34.0325 22.0372 34.0325C22.0372 35.3174 22.0372 36.1882 22.0372 37.0357H26.0499V34.0325M22.9388 34.0325H26.0499M27.1866 31.0452H37.596C37.596 28.1856 40.0934 26.8726 43.264 26.8726C46.7432 26.8726 49.3618 29.444 49.3618 32.9629C49.3618 36.4819 46.4181 39.1365 43.264 39.1365C40.11 39.1365 37.596 36.8744 37.596 34.0325H26.0499M46.1089 32.9629C46.1089 34.5341 44.8352 35.8078 43.264 35.8078C41.6928 35.8078 40.4191 34.5341 40.4191 32.9629C40.4191 31.3917 41.6928 30.118 43.264 30.118C44.8352 30.118 46.1089 31.3917 46.1089 32.9629Z" stroke="white" stroke-width="2"/>
</svg>
