<svg width="57" height="56" viewBox="0 0 57 56" fill="none" xmlns="http://www.w3.org/2000/svg">
<rect x="0.525391" width="56" height="56" rx="28" fill="#096A4F"/>
<path d="M32.9917 25.7896C31.512 26.4351 30.1927 27.4959 29.2248 28.9344C26.5167 32.9591 27.584 38.4171 31.6087 41.1251C35.6333 43.8331 41.0913 42.7658 43.7993 38.7411C46.5073 34.7165 45.44 29.2586 41.4154 26.5505C38.8293 24.8105 35.6515 24.6292 32.9917 25.7896ZM32.9917 25.7896C32.7276 25.7607 32.0893 25.6289 31.6485 25.3323C31.2077 25.0357 29.7282 24.0402 29.0436 23.5795C28.7251 23.3277 27.9734 22.9945 27.5145 23.6766C27.4308 23.801 27.3291 23.9521 27.2161 24.1202M27.7306 33.6085C27.6044 33.3748 27.2418 32.8332 26.801 32.5366L24.196 30.7839C23.8428 30.5837 23.251 30.0129 23.71 29.3308L24.8239 27.6754M27.2161 24.1202C26.7092 24.8734 25.9743 25.9656 25.6122 26.5037L24.8239 27.6754M27.2161 24.1202L21.5392 20.3004L14.4571 15.5368C14.3041 15.4072 13.7859 15.2133 12.9372 15.475C12.0885 15.7367 10.9108 16.1264 10.428 16.2885L11.1068 19.0879C11.1458 19.2877 11.3334 20.1213 11.9508 20.5367C12.7224 21.0559 13.1899 20.9082 13.956 20.6848C14.5538 20.5104 15.1151 20.3703 15.3211 20.3221L15.7147 23.0693L18.6283 22.5474L18.9117 25.2204L20.2249 24.2412C20.6383 23.8748 20.8673 24.9374 20.9003 25.3557C21.0086 26.7289 21.0777 27.0765 21.4538 27.3296C22.4065 27.9707 24.5788 27.2419 24.8239 27.6754M37.607 38.4508C35.8982 37.301 35.445 34.9835 36.5948 33.2747C37.7447 31.5658 40.0621 31.1126 41.7709 32.2625C43.4798 33.4123 43.933 35.7297 42.7832 37.4386C41.6333 39.1474 39.3159 39.6006 37.607 38.4508Z" stroke="white" stroke-width="2"/>
</svg>
