<svg width="57" height="56" viewBox="0 0 57 56" fill="none" xmlns="http://www.w3.org/2000/svg">
<rect x="0.525391" width="56" height="56" rx="28" fill="#AE9FA4"/>
<path d="M24.4359 26.1436C24.4359 25.8054 24.4359 23.6064 24.4359 17.9249C24.4359 12.2434 29.341 9.16309 34.0987 9.16309C38.4434 9.16309 43.4586 11.9616 43.4586 17.6431C43.4586 17.6431 43.4723 20.2722 43.4723 20.4622C43.4723 20.6522 43.4854 22.5161 41.5266 22.5161C40.0682 22.5161 39.5257 21.3518 39.5257 20.744V17.9249C39.5257 14.516 36.641 13.0247 34.0987 13.0247C31.5563 13.0247 28.3219 14.516 28.3219 17.9249C28.3219 21.3338 28.3219 24.8585 28.3219 26.1436M24.4359 26.1436H22.5487L22.5505 45.0383H33.7792M24.4359 26.1436H33.7775H39.5257H42.907H44.6429L44.6446 45.0383H33.7775M22.5037 34.8123C21.8708 33.6066 20.7333 32.6259 19.5108 32.0213V21.0487C18.9747 20.6913 18.0368 19.8315 18.0368 19.2513C18.0368 18.6711 19.1089 17.9374 19.645 17.6431V15.1835C18.9513 13.5018 17.4018 10.2013 16.744 10.2013C15.8993 10.2013 14.3352 13.5438 13.6413 15.1835V32.0674C11.5613 33.1377 10.3398 35.3057 10.3398 37.806C10.3398 41.368 13.2274 44.2556 16.7895 44.2556C19.271 44.2556 21.4251 42.8542 22.5037 40.7997M19.6431 38.0952C19.6431 39.6964 18.3451 40.9945 16.7438 40.9945C15.1426 40.9945 13.8445 39.6964 13.8445 38.0952C13.8445 36.4939 15.1426 35.1958 16.7438 35.1958C18.3451 35.1958 19.6431 36.4939 19.6431 38.0952ZM30.1525 33.6594C30.1525 31.7693 31.7146 30.3613 33.6048 30.3613C35.4949 30.3613 36.9782 31.7693 36.9782 33.6594C36.9782 34.7411 36.8154 35.7057 36.0317 36.3329V40.9944H31.2058V36.3329C30.4221 35.7057 30.1525 34.7411 30.1525 33.6594Z" stroke="white" stroke-width="2"/>
</svg>
