<svg display="none" xmlns="http://www.w3.org/2000/svg">

	<symbol id="vk" viewBox="0 0 23 16">
		<path
			d="M18.8535 15.1326C17.9841 12.4193 15.8172 10.3202 12.9512 10.0349V15.1326H12.509C4.71153 15.1326 0.263575 9.77736 0.078125 0.867188H3.98471C4.1131 7.40716 6.99257 10.1775 9.27361 10.7488V0.867188H12.9519V6.50773C15.2045 6.26522 17.5711 3.69459 18.3692 0.867188H22.0476C21.4349 4.35151 18.8685 6.92143 17.0433 7.9785C18.8678 8.83513 21.7908 11.0769 22.9028 15.1326H18.8535Z" />
	</symbol>

	<symbol id="whatsapp" viewBox="0 0 20 20">
		<path fill-rule="evenodd" clip-rule="evenodd"
			d="M9.12054 0.924986C5.06536 1.33583 1.76477 4.41143 1.07813 8.41916C0.804901 10.0139 0.981772 11.6988 1.58214 13.2203C1.71402 13.5545 2.04578 14.2503 2.13099 14.3715C2.17229 14.4302 2.22989 14.2024 1.5507 16.6665C1.26354 17.7083 0.99538 18.682 0.954795 18.8303C0.913682 18.9805 0.892755 19.1 0.907604 19.1C0.930275 19.1 2.32052 18.7405 3.08301 18.5376C3.21381 18.5028 3.8531 18.3358 4.50364 18.1664L5.68644 17.8586L5.91724 17.9766C7.76726 18.9224 9.97942 19.1933 12.0534 18.7282C12.9807 18.5202 14.0194 18.0914 14.841 17.5771C15.9998 16.8519 17.051 15.796 17.7641 14.6409C18.8853 12.8247 19.3208 10.686 19.0014 8.56385C18.6204 6.03239 17.1836 3.79965 15.0125 2.36511C13.8069 1.56847 12.3876 1.07128 10.8946 0.922487C10.5741 0.890549 9.44471 0.892128 9.12054 0.924986ZM10.8116 2.45032C13.8185 2.73996 16.4339 4.90893 17.2692 7.80575C17.484 8.55078 17.5591 9.09653 17.56 9.91869C17.5607 10.5737 17.5358 10.8473 17.426 11.3908C16.8894 14.0463 14.9572 16.2081 12.3573 17.0617C10.3209 17.7304 8.00358 17.4706 6.16123 16.3671C6.0377 16.2931 5.9188 16.2328 5.897 16.2332C5.8752 16.2335 5.23314 16.3978 4.47019 16.5983C3.70724 16.7988 3.07908 16.9594 3.07429 16.9551C3.06277 16.9448 3.45916 15.4748 3.75626 14.4261C3.78561 14.3224 3.80963 14.2245 3.80963 14.2083C3.80963 14.1922 3.7404 14.0696 3.65577 13.9358C3.08576 13.035 2.73231 12.084 2.56363 10.9973C2.51335 10.6734 2.50434 10.5087 2.50394 9.90553C2.50354 9.2997 2.51208 9.14106 2.56191 8.82693C2.82326 7.17919 3.56176 5.73267 4.72662 4.58688C6.34539 2.99467 8.52344 2.22989 10.8116 2.45032ZM6.65622 5.76256C6.47856 5.80757 6.34462 5.89375 6.17301 6.07351C5.93029 6.32775 5.80273 6.50627 5.67183 6.77495C5.51462 7.09761 5.44412 7.38715 5.42837 7.77463C5.39352 8.63162 5.7205 9.42429 6.58412 10.5764C7.72895 12.1036 9.02634 13.1707 10.4373 13.7455C10.9429 13.9515 11.6379 14.174 11.9246 14.2218C12.2423 14.2747 12.7891 14.2617 13.0377 14.1954C13.6113 14.0423 14.247 13.5993 14.4305 13.2246C14.5414 12.9981 14.6218 12.6375 14.6261 12.3479C14.6306 12.0418 14.6231 12.0332 14.1452 11.7979C12.8133 11.1421 12.5411 11.0236 12.3662 11.0236C12.2411 11.0236 12.24 11.0247 11.8773 11.484C11.5377 11.914 11.3253 12.1436 11.2312 12.1824C11.1236 12.2268 11.0217 12.193 10.4813 11.9337C9.4537 11.4407 8.67474 10.7554 8.01965 9.76813C7.78874 9.42013 7.73751 9.30941 7.76005 9.20723C7.76908 9.16619 7.85982 9.04015 7.96165 8.92716C8.35201 8.49398 8.51208 8.23472 8.51256 8.03476C8.51271 7.97051 8.4809 7.8565 8.43421 7.75398C8.39096 7.65903 8.21343 7.23598 8.0397 6.81388C7.72083 6.03926 7.63745 5.8745 7.52816 5.80318C7.45415 5.7549 6.80567 5.7247 6.65622 5.76256Z" />
	</symbol>

	<symbol id="viber" viewBox="0 0 20 20">
		<path
			d="M14.6518 6.98333C14.2644 5.31221 12.859 3.98421 11.1266 3.65244C10.5591 3.54378 9.70685 3.54291 9.25237 3.65054C8.88461 3.73766 8.75642 4.1013 9.00866 4.34195C9.13159 4.45923 9.1562 4.46381 9.45553 4.42503C9.96143 4.35944 10.7591 4.3821 11.1257 4.47243C11.9547 4.67669 12.8408 5.2876 13.3147 5.98164C13.7874 6.67388 13.9944 7.50849 13.8913 8.30631C13.8122 8.91854 13.8127 8.92536 13.9578 9.06374C14.1207 9.21918 14.3584 9.22191 14.5174 9.07027C14.7589 8.83985 14.8292 7.74861 14.6518 6.98333Z" />
		<path
			d="M7.92985 6.40604C7.58594 5.70031 6.7063 4.64492 6.30902 4.46142C5.96715 4.30355 5.61057 4.35345 5.11979 4.62787C4.55954 4.94112 4.25414 5.42705 4.26251 5.99188C4.26675 6.27784 4.30689 6.42743 4.51077 6.91765C5.80117 10.0203 8.20741 12.3499 11.6086 13.7892C12.0012 13.9554 12.1171 13.9828 12.4268 13.9828C12.7311 13.9828 12.8407 13.9578 13.1266 13.8235C13.7532 13.5292 14.3431 12.8085 14.3431 12.3371C14.3431 11.9873 14.1798 11.8041 13.3296 11.1998C12.4018 10.5405 12.2253 10.4477 11.8349 10.414C11.5808 10.392 11.5095 10.4061 11.3094 10.5179C11.1821 10.5892 11.0059 10.7472 10.9179 10.8692C10.5815 11.3357 10.2299 11.3934 9.58867 11.0871C8.46435 10.5502 7.63828 9.75384 7.22379 8.80721C6.9809 8.25247 7.06798 7.91057 7.54528 7.54503C8.08965 7.12809 8.16824 6.89524 7.92985 6.40604Z" />
		<path
			d="M13.0996 6.43167C12.6379 5.5762 11.7116 4.95204 10.6818 4.80269C10.0368 4.70909 9.58443 4.76615 9.4065 4.96353C9.25472 5.13183 9.25497 5.29296 9.40727 5.46184C9.52401 5.5914 9.54077 5.59477 10.0131 5.584C10.2802 5.57791 10.6111 5.5992 10.7484 5.63131C11.3875 5.7809 12.0482 6.26054 12.3437 6.78955C12.5779 7.20864 12.6631 7.57563 12.648 8.09913C12.6332 8.6068 12.6895 8.71434 13.0006 8.77373C13.137 8.7997 13.189 8.78148 13.3114 8.66478C13.4324 8.54921 13.4644 8.46789 13.4929 8.20243C13.5281 7.87485 13.4676 7.29956 13.3656 6.99074C13.3346 6.89694 13.2149 6.64538 13.0996 6.43167Z" />
		<path
			d="M12.1483 7.42015C11.9138 6.69576 11.327 6.17469 10.5742 6.02228C10.1893 5.94442 10.0341 5.95387 9.88707 6.06418C9.71829 6.19087 9.67406 6.37096 9.76885 6.54578C9.85235 6.6999 10.0186 6.77586 10.352 6.81231C10.874 6.86936 11.2975 7.30428 11.3812 7.86915C11.4365 8.2419 11.5518 8.37453 11.8206 8.37453C11.9609 8.37453 12.0371 8.3412 12.1282 8.24024C12.2796 8.07234 12.2852 7.84299 12.1483 7.42015Z" />
		<path fill-rule="evenodd" clip-rule="evenodd"
			d="M9.84563 0.0723761C14.1665 0.125787 17.1364 1.20481 18.364 3.73975C19.0325 5.1202 19.3612 7.56461 19.2211 9.64392C19.0939 11.5317 18.821 12.7085 18.1692 13.9434C16.6078 16.9012 12.9961 17.0155 9.9308 17.1125C9.63595 17.1218 9.34615 17.131 9.06372 17.1425L6.13447 19.9293H4.33369C4.33354 19.6122 4.33471 19.295 4.33588 18.9777C4.33907 18.112 4.34226 17.246 4.31865 16.3809C2.28061 15.6024 1.02998 14.2443 0.477253 12.1261C-0.00549493 10.2763 -0.0138162 8.26761 0.4114 5.82483C0.647116 4.47049 1.12667 3.28269 2.14904 2.30987C4.16171 0.394818 7.15516 0.0389885 9.84563 0.0723761ZM1.88822 11.7772C1.46978 10.1739 1.44409 8.37461 1.84673 6.06153C2.03114 5.00196 2.36554 4.08547 3.16668 3.32316C4.93373 1.64181 7.49697 1.47621 9.82707 1.48927C14.0283 1.54121 16.199 2.59244 17.0472 4.34393C17.5718 5.42721 17.8996 7.60467 17.7685 9.55121C17.6488 11.3271 17.4032 12.2937 16.8743 13.2958C15.6087 15.6761 10.7276 15.9234 8.44522 15.7495L5.78869 18.2768C5.78865 18.1926 5.78866 18.1085 5.78867 18.0243C5.78874 17.4903 5.78881 16.9562 5.77595 16.4223C5.77487 16.3777 5.77466 16.3317 5.77444 16.2848C5.77323 16.029 5.77191 15.7478 5.63061 15.5353L5.57669 15.5074C3.76874 14.5701 2.43686 13.8797 1.88822 11.7772Z" />
	</symbol>

	<symbol id="telegram" viewBox="0 0 21 18">
		<path
			d="M1.20339 8.91407L5.89041 10.331C9.21034 8.25285 15.9088 4.0683 16.1431 3.95495C16.4361 3.81326 16.8755 3.52988 17.022 3.67157C17.1391 3.78492 16.8755 4.09664 16.729 4.23833L8.38026 11.6062L7.94086 16.1402C8.18497 16.1402 8.81967 15.9985 9.40555 15.4318L11.3097 13.5898C12.2861 14.3455 14.4734 16.0269 15.4108 16.707C16.5826 17.5571 17.1684 16.9903 17.4614 15.8568C17.7543 14.7233 19.0725 8.34731 19.6584 5.65522C20.2443 2.96312 20.8302 1.26285 20.3908 0.979476C20.0392 0.752773 19.0725 0.979476 18.6331 1.12117C13.4091 3.05758 2.5802 7.07211 1.05692 7.63886C-0.466362 8.20562 0.519865 8.72515 1.20339 8.91407Z" />
	</symbol>


	<symbol id="phone" viewBox="0 0 27 26">
		<path fill-rule="evenodd" clip-rule="evenodd"
			d="M23.3658 24.1303C21.509 25.7162 20.3382 25.9976 20.3382 25.9976C20.3382 25.9976 14.5367 26.3242 7.43235 19.3553C7.42367 19.3484 7.41498 19.3414 7.4063 19.3327C7.36982 19.298 7.33508 19.2615 7.30034 19.225C7.26386 19.1886 7.22739 19.1538 7.19091 19.1174C7.18396 19.1104 7.17701 19.1017 7.17007 19.093C0.201233 11.987 0.527788 6.18715 0.527788 6.18715C0.527788 6.18715 0.809182 5.01641 2.39506 3.15956C3.98094 1.30271 5.36359 -0.0781993 5.75789 0.00343954C6.15219 0.0833414 7.4393 2.26848 8.46934 4.14444C9.49938 6.01866 9.67655 6.28616 9.0495 6.83505C8.42244 7.38394 6.66113 8.81696 6.58817 9.36585C6.51522 9.91301 7.15791 12.8173 10.0552 15.7163C10.1907 15.8518 10.3106 15.9838 10.4148 16.1089C10.5416 16.2148 10.6736 16.3347 10.8091 16.4702C13.7064 19.3675 16.6124 20.0102 17.1595 19.9372C17.7067 19.8643 19.1397 18.1029 19.6886 17.4759C20.2375 16.8488 20.5067 17.0243 22.381 18.0561C24.2569 19.0861 26.442 20.3715 26.522 20.7675C26.6036 21.1601 25.2227 22.5445 23.3658 24.1303Z" />
	</symbol>

	<symbol id="prev" viewBox="0 0 28 18">
		<path d="M1.52539 8.89014H27.5254M1.52539 8.89014L9.02539 1.39014M1.52539 8.89014L9.02539 16.3901"
			stroke-width="2" />
	</symbol>

	<symbol id="next" viewBox="0 0 28 18">
		<path d="M26.5254 8.89014H0.525391M26.5254 8.89014L19.0254 1.39014M26.5254 8.89014L19.0254 16.3901"
			stroke-width="2" />
	</symbol>

	<symbol id='close' viewBox="0 0 23 22">
		<path d="M21.5254 1C18.7428 3.31884 7.03264 15.2995 1.52539 21M1.52539 1C4.308 3.31884 16.0181 15.2995 21.5254 21"
			stroke-width="2" />
	</symbol>

</svg>