<svg width="57" height="57" viewBox="0 0 57 57" fill="none" xmlns="http://www.w3.org/2000/svg">
<rect x="0.0253906" y="0.0708008" width="56" height="56" rx="28" fill="#1BAAE1"/>
<path d="M13.6938 27.9589L19.7303 29.8055C24.0061 27.0972 32.6331 21.6437 32.9349 21.496C33.3122 21.3113 33.8781 20.942 34.0668 21.1267C34.2177 21.2744 33.8781 21.6806 33.6895 21.8653L22.937 31.4674L22.3711 37.3763C22.6855 37.3763 23.5029 37.1917 24.2575 36.4531L26.7098 34.0525C27.9674 35.0374 30.7844 37.2286 31.9917 38.115C33.5008 39.2229 34.2554 38.4843 34.6327 37.007C35.01 35.5298 36.7077 27.2203 37.4623 23.7118C38.2168 20.2034 38.9714 17.9875 38.4055 17.6182C37.9527 17.3227 36.7077 17.6182 36.1418 17.8029C29.4137 20.3265 15.467 25.5584 13.5052 26.297C11.5433 27.0356 12.8135 27.7127 13.6938 27.9589Z" fill="white"/>
</svg>
