<svg width="57" height="57" viewBox="0 0 57 57" fill="none" xmlns="http://www.w3.org/2000/svg">
<rect x="0.525391" y="0.0708008" width="56" height="56" rx="28" fill="#7D3DAF"/>
<path fill-rule="evenodd" clip-rule="evenodd" d="M31.5338 18.2253C34.4956 18.8081 36.8985 21.1406 37.5607 24.0758C37.864 25.42 37.7439 27.3367 37.3309 27.7414C37.0591 28.0077 36.6527 28.0029 36.3743 27.7299C36.1262 27.4869 36.1252 27.4749 36.2606 26.3996C36.4369 24.9982 36.083 23.5323 35.2748 22.3164C34.4645 21.0974 32.9496 20.0244 31.5323 19.6656C30.9055 19.5069 29.5418 19.4671 28.6769 19.5823C28.1652 19.6505 28.1231 19.6424 27.9129 19.4364C27.4817 19.0137 27.7008 18.375 28.3296 18.222C29.1066 18.033 30.5636 18.0345 31.5338 18.2253ZM23.2974 19.6463C23.9767 19.9686 25.4805 21.8223 26.0685 23.0619C26.4761 23.9211 26.3417 24.3301 25.411 25.0624C24.595 25.7045 24.4461 26.305 24.8614 27.2793C25.57 28.942 26.9823 30.3409 28.9045 31.2839C30.0008 31.8218 30.6019 31.7206 31.1771 30.9011C31.3275 30.6868 31.6287 30.4093 31.8464 30.2841C32.1885 30.0876 32.3104 30.0629 32.7448 30.1015C33.4123 30.1608 33.7141 30.3238 35.3002 31.4819C36.7538 32.5432 37.033 32.865 37.033 33.4794C37.033 34.3073 36.0245 35.5733 34.9532 36.0902C34.4645 36.3261 34.277 36.3699 33.7568 36.3699C33.2272 36.3699 33.0292 36.3218 32.3579 36.0299C26.5431 33.5018 22.4292 29.4101 20.2231 23.9605C19.8745 23.0994 19.8059 22.8367 19.7986 22.3344C19.7843 21.3423 20.3064 20.4888 21.2643 19.9386C22.1033 19.4566 22.713 19.369 23.2974 19.6463ZM30.7734 20.2457C32.534 20.508 34.1176 21.6043 34.907 23.1069C35.1041 23.4822 35.3088 23.9241 35.3618 24.0888C35.5362 24.6313 35.6396 25.6417 35.5794 26.2171C35.5307 26.6834 35.4761 26.8262 35.269 27.0292C35.0599 27.2342 34.9709 27.2662 34.7378 27.2206C34.2058 27.1162 34.1097 26.9273 34.1349 26.0357C34.1608 25.1162 34.0151 24.4716 33.6147 23.7355C33.1095 22.8063 31.98 21.9638 30.8872 21.7011C30.6525 21.6447 30.0868 21.6073 29.6301 21.618C28.8226 21.6369 28.794 21.631 28.5944 21.4034C28.334 21.1068 28.3336 20.8238 28.5931 20.5282C28.8973 20.1815 29.6706 20.0813 30.7734 20.2457ZM30.5894 22.3878C31.8765 22.6555 32.8797 23.5707 33.2807 24.8431C33.5147 25.5858 33.5051 25.9886 33.2463 26.2835C33.0906 26.4608 32.9601 26.5194 32.7204 26.5194C32.2608 26.5194 32.0636 26.2864 31.9692 25.6317C31.8261 24.6396 31.1019 23.8757 30.2096 23.7754C29.6395 23.7114 29.3553 23.578 29.2126 23.3073C29.0505 23.0002 29.1261 22.6839 29.4147 22.4614C29.6661 22.2677 29.9314 22.251 30.5894 22.3878Z" fill="white"/>
<path fill-rule="evenodd" clip-rule="evenodd" d="M26.5628 13.1888C22.1551 13.5899 18.9916 14.7647 16.9531 16.7574C15.4396 18.237 14.7867 19.6088 14.3394 22.2492C13.6317 26.4259 13.6608 29.7701 14.4312 32.8027C15.0607 35.2812 16.111 37.0149 17.6858 38.1752C18.352 38.666 18.784 38.8821 19.981 39.3227C20.4995 39.5137 20.9542 39.7169 20.9915 39.7745C21.0289 39.8321 21.06 41.1597 21.0608 42.7248L21.0621 45.5704H21.7259H22.3898L24.883 43.1335L27.3762 40.6967L29.4361 40.6103C32.4801 40.4828 33.2173 40.4366 34.4089 40.2991C38.4674 39.8307 41.009 38.3719 42.3652 35.7323C43.3745 33.7677 43.8178 31.8854 44.0289 28.6679C44.2607 25.1323 43.6994 21.0733 42.6795 18.9096C40.9051 15.1452 36.5107 13.2744 29.2259 13.1819C27.9773 13.166 26.7789 13.1691 26.5628 13.1888Z" stroke="white" stroke-width="2.78406"/>
</svg>
