<svg width="57" height="57" viewBox="0 0 57 57" fill="none" xmlns="http://www.w3.org/2000/svg">
<rect x="0.0253906" y="0.0708008" width="56" height="56" rx="28" fill="#58BB63"/>
<path fill-rule="evenodd" clip-rule="evenodd" d="M26.5166 12.5588C19.5849 13.2611 13.9431 18.5183 12.7694 25.3689C12.3023 28.0949 12.6047 30.9749 13.6309 33.5757C13.8563 34.1469 14.4234 35.3365 14.5691 35.5435C14.6397 35.6439 14.7381 35.2545 13.5772 39.4666C13.0863 41.2473 12.6279 42.9117 12.5585 43.1653C12.4883 43.4219 12.4525 43.6262 12.4779 43.6262C12.5166 43.6262 14.893 43.0118 16.1964 42.6648C16.42 42.6053 17.5128 42.3198 18.6248 42.0304L20.6466 41.5043L21.0411 41.7059C24.2034 43.3226 27.9848 43.7857 31.53 42.9907C33.1149 42.6352 34.8904 41.9021 36.2949 41.0231C38.2758 39.7833 40.0725 37.9785 41.2915 36.004C43.2081 32.8995 43.9524 29.2438 43.4064 25.6163C42.7552 21.2891 40.2993 17.4726 36.5881 15.0205C34.5272 13.6587 32.1012 12.8089 29.5492 12.5545C29.0013 12.4999 27.0708 12.5026 26.5166 12.5588ZM29.4072 15.1661C34.5472 15.6612 39.0178 19.3687 40.4456 24.3204C40.8128 25.5939 40.9412 26.5268 40.9426 27.9321C40.9438 29.0517 40.9012 29.5195 40.7135 30.4485C39.7964 34.9877 36.4936 38.6829 32.0494 40.1421C28.5684 41.285 24.6074 40.841 21.4582 38.9547C21.247 38.8283 21.0438 38.7252 21.0065 38.7258C20.9692 38.7263 19.8717 39.0072 18.5676 39.35C17.2634 39.6927 16.1897 39.9672 16.1815 39.9599C16.1618 39.9423 16.8394 37.4296 17.3472 35.6369C17.3974 35.4597 17.4385 35.2922 17.4385 35.2646C17.4385 35.2371 17.3201 35.0275 17.1755 34.7989C16.2011 33.259 15.5969 31.6334 15.3086 29.7759C15.2227 29.2222 15.2073 28.9407 15.2066 27.9097C15.2059 26.8741 15.2205 26.6029 15.3057 26.066C15.7524 23.2494 17.0148 20.7768 19.0059 18.8182C21.773 16.0966 25.496 14.7893 29.4072 15.1661ZM22.3043 20.8279C22.0006 20.9048 21.7716 21.0521 21.4783 21.3594C21.0634 21.794 20.8453 22.0991 20.6216 22.5584C20.3529 23.1099 20.2324 23.6049 20.2055 24.2672C20.1459 25.7321 20.7048 27.0871 22.181 29.0564C24.1379 31.6669 26.3556 33.4909 28.7674 34.4735C29.6317 34.8257 30.8197 35.206 31.3098 35.2876C31.8529 35.378 32.7875 35.3559 33.2124 35.2425C34.193 34.9809 35.2796 34.2235 35.5932 33.5832C35.7828 33.1959 35.9203 32.5796 35.9276 32.0846C35.9352 31.5613 35.9224 31.5466 35.1055 31.1444C32.8288 30.0233 32.3635 29.8208 32.0645 29.8208C31.8508 29.8208 31.8488 29.8227 31.2289 30.6078C30.6484 31.3428 30.2854 31.7353 30.1245 31.8017C29.9406 31.8775 29.7663 31.8197 28.8426 31.3765C27.0861 30.5338 25.7546 29.3624 24.6348 27.6748C24.2401 27.08 24.1526 26.8907 24.1911 26.716C24.2065 26.6459 24.3616 26.4304 24.5357 26.2373C25.203 25.4968 25.4766 25.0537 25.4774 24.7119C25.4777 24.602 25.4233 24.4072 25.3435 24.2319C25.2695 24.0696 24.9661 23.3465 24.6691 22.625C24.1241 21.3009 23.9815 21.0192 23.7947 20.8973C23.6682 20.8148 22.5597 20.7632 22.3043 20.8279Z" fill="white"/>
</svg>
